<?xml version="1.0" encoding="UTF-8" standalone="no"?>
<!-- Created with Inkscape (http://www.inkscape.org/) -->

<svg
   xmlns:dc="http://purl.org/dc/elements/1.1/"
   xmlns:cc="http://creativecommons.org/ns#"
   xmlns:rdf="http://www.w3.org/1999/02/22-rdf-syntax-ns#"
   xmlns:svg="http://www.w3.org/2000/svg"
   xmlns="http://www.w3.org/2000/svg"
   xmlns:sodipodi="http://sodipodi.sourceforge.net/DTD/sodipodi-0.dtd"
   xmlns:inkscape="http://www.inkscape.org/namespaces/inkscape"
   id="svg2985"
   version="1.1"
   inkscape:version="0.48.5 r10040"
   width="1000"
   height="279.08594"
   xml:space="preserve"
   sodipodi:docname="Lithium-giffgaff-Case-Study.pdf"><metadata
     id="metadata2991"><rdf:RDF><cc:Work
         rdf:about=""><dc:format>image/svg+xml</dc:format><dc:type
           rdf:resource="http://purl.org/dc/dcmitype/StillImage" /><dc:title></dc:title></cc:Work></rdf:RDF></metadata><defs
     id="defs2989"><clipPath
       clipPathUnits="userSpaceOnUse"
       id="clipPath3001"><path
         d="M 0,792 612,792 612,0 0,0 0,792 z"
         id="path3003"
         inkscape:connector-curvature="0" /></clipPath><clipPath
       clipPathUnits="userSpaceOnUse"
       id="clipPath3013"><path
         d="m 456,722.237 117.321,0 0,35.11 -117.321,0 0,-35.11 z"
         id="path3015"
         inkscape:connector-curvature="0" /></clipPath><clipPath
       clipPathUnits="userSpaceOnUse"
       id="clipPath3039"><path
         d="M 0,792 612,792 612,0 0,0 0,792 z"
         id="path3041"
         inkscape:connector-curvature="0" /></clipPath><clipPath
       clipPathUnits="userSpaceOnUse"
       id="clipPath3349"><path
         d="m 52.2,465.417 150.3,0 0,41.839 -150.3,0 0,-41.839 z"
         id="path3351"
         inkscape:connector-curvature="0" /></clipPath></defs><sodipodi:namedview
     pagecolor="#ffffff"
     bordercolor="#666666"
     borderopacity="1"
     objecttolerance="10"
     gridtolerance="10"
     guidetolerance="10"
     inkscape:pageopacity="0"
     inkscape:pageshadow="2"
     inkscape:window-width="1069"
     inkscape:window-height="1034"
     id="namedview2987"
     showgrid="false"
     fit-margin-left="0.5"
     fit-margin-bottom="0.5"
     fit-margin-top="0.5"
     fit-margin-right="0.5"
     inkscape:zoom="0.3897017"
     inkscape:cx="830.04831"
     inkscape:cy="-173.98673"
     inkscape:window-x="843"
     inkscape:window-y="-19"
     inkscape:window-maximized="0"
     inkscape:current-layer="g2993" /><g
     id="g2993"
     inkscape:groupmode="layer"
     inkscape:label="Lithium-giffgaff-Case-Study"
     transform="matrix(1.25,0,0,-1.25,-64.750247,860.35805)"><g
       id="g3345"
       style="fill:#141414;fill-opacity:1"
       transform="matrix(5.3173723,0,0,5.3173723,-225.3677,-2009.3815)"><g
         id="g3347"
         clip-path="url(#clipPath3349)"
         style="fill:#141414;fill-opacity:1"><g
           id="g3353"
           transform="translate(132.8716,486.9937)"
           style="fill:#141414;fill-opacity:1"><path
             d="m 0,0 c 0,5.255 -2.628,6.651 -5.764,6.651 -3.486,0 -5.395,-2.535 -5.395,-6.426 0,-4.023 2.039,-7.009 5.763,-7.009 C -2.628,-6.784 0,-5.199 0,0 m -6.755,11.532 c 5.348,0.004 7.114,-3.25 7.114,-3.25 l 0.096,0 0,0.593 c 0,1.031 0.723,2.12 2.537,2.12 l 5.357,0 0,-4.885 -1.776,0 C 5.985,6.11 5.578,5.792 5.578,5.209 l 0,-15.881 c 0.004,-7.921 -6.163,-10.904 -12.199,-10.904 -2.906,0 -5.989,0.812 -8.211,1.994 l 1.767,4.519 c 0,0 2.858,-1.536 6.396,-1.536 3.499,-0.006 6.535,1.495 6.535,5.66 l 0,1.085 c 0,0.541 0.034,1.215 0.034,1.215 l -0.086,0.006 c -1.36,-1.948 -3.356,-2.99 -6.431,-2.99 -6.63,0 -10.393,5.342 -10.393,11.668 0,6.34 3.581,11.491 10.255,11.487"
             style="fill:#141414;fill-opacity:1;fill-rule:nonzero;stroke:none"
             id="path3355"
             inkscape:connector-curvature="0" /></g><g
           id="g3357"
           transform="translate(156.3944,484.913)"
           style="fill:#141414;fill-opacity:1"><path
             d="m 0,0 c 0,-2.8 -2.178,-6.056 -5.261,-6.056 -2.365,0 -3.495,1.446 -3.495,2.986 0,3.209 4.763,3.611 7.764,3.611 L 0,0.541 0,0 z m 34.046,17.371 c 0.688,0 1.182,-0.086 1.182,-0.086 l 0,4.885 c 0,0 -0.766,0.132 -1.905,0.138 -3.266,0 -9.484,-1.002 -9.475,-8.559 l 0,-0.673 -7.587,0 0,0.409 c -0.005,3.44 2.815,3.886 4.443,3.886 0.684,0 1.182,-0.086 1.182,-0.086 l -0.004,4.885 c 0,0 -0.767,0.138 -1.949,0.138 -3.222,0 -9.44,-1.002 -9.44,-8.546 l 0.008,-18.909 0,-0.011 -3.832,0 c -0.637,0 -1.005,0.362 -1.005,0.997 l 0,8.593 c 0,5.164 -2.264,9.185 -9.968,9.185 -2.412,0 -8.484,-0.455 -8.488,-4.753 l 0.004,-2.44 5.348,0 0,1.219 c 0,1.273 2.044,1.538 3.084,1.538 2.957,0 4.265,-1.222 4.265,-4.526 l 0,-0.177 -0.727,0 c -3.764,0.006 -13.741,-0.594 -13.745,-7.826 0,-4.605 3.767,-7.186 7.899,-7.186 5.213,0 6.98,4.069 6.98,4.069 l 0.091,0 c 0,0 -0.043,-0.41 -0.043,-0.998 0,-1.354 0.818,-2.529 2.945,-2.536 l 12.947,0.007 0,18.499 7.592,0 -0.009,-18.499 5.764,0 0,18.499 4.993,0 0,4.569 -4.985,0 -0.008,0.402 c 0,3.447 2.819,3.893 4.443,3.893"
             style="fill:#141414;fill-opacity:1;fill-rule:nonzero;stroke:none"
             id="path3359"
             inkscape:connector-curvature="0" /></g><g
           id="g3361"
           transform="translate(63.8142,480.2468)"
           style="fill:#141414;fill-opacity:1"><path
             d="m 0,0 c -3.72,0 -5.764,2.984 -5.764,7.011 0,3.887 1.906,6.42 5.4,6.42 3.127,0 5.755,-1.392 5.764,-6.649 C 5.4,1.583 2.763,0 0,0 m 50.74,22.076 c 0.688,-0.006 1.182,-0.092 1.182,-0.092 l 0,4.886 c 0,0 -0.767,0.139 -1.905,0.139 -3.266,0 -9.476,-0.996 -9.476,-8.557 l 0,-0.675 -7.586,0 -0.005,0.409 c 0.005,3.436 2.815,3.89 4.452,3.89 0.68,-0.006 1.178,-0.092 1.178,-0.092 l 0,4.886 c 0,0 -0.771,0.139 -1.958,0.139 -3.217,0 -9.427,-0.996 -9.427,-8.553 l 0,-18.902 -4.244,-0.011 c -0.632,0 -0.996,0.364 -0.996,1.003 l 0,14.16 c 0,2.12 -0.9,3.071 -3.035,3.071 l -10.523,0 c -1.819,0 -2.542,-1.09 -2.542,-2.127 -0.009,-0.312 0,-0.587 0,-0.587 l -0.095,0 c 0,0 -1.767,3.251 -7.12,3.255 -6.669,0 -10.25,-5.151 -10.254,-11.491 0.004,-6.333 3.763,-11.67 10.384,-11.67 3.088,0.006 5.088,1.043 6.448,2.992 l 0.087,0 c 0,0 -0.043,-0.68 -0.043,-1.223 l 0,-1.09 c 0,-4.165 -3.04,-5.657 -6.531,-5.651 -3.546,0 -6.396,1.537 -6.396,1.537 l -1.767,-4.523 c 2.213,-1.175 5.305,-1.994 8.211,-1.994 6.032,0 12.203,2.984 12.199,10.902 l 0.004,15.88 c 0,0.587 0.398,0.903 0.992,0.903 l 3.273,0 c 0.633,0 0.996,-0.316 0.996,-0.99 l 0,-14.121 c 0,-2.172 0.906,-3.071 3.036,-3.071 l 13.676,0 0,18.5 7.586,0 0,-18.5 5.756,0 0,18.5 4.993,0 0,4.569 -4.993,0 0,0.402 c 0,3.45 2.814,3.897 4.443,3.897"
             style="fill:#141414;fill-opacity:1;fill-rule:nonzero;stroke:none"
             id="path3363"
             inkscape:connector-curvature="0" /></g><g
           id="g3365"
           transform="translate(85.7695,501.4811)"
           style="fill:#141414;fill-opacity:1"><path
             d="M 0,0 -5.781,0 -5.785,5.762 0,5.76 0,0 z"
             style="fill:#141414;fill-opacity:1;fill-rule:nonzero;stroke:none"
             id="path3367"
             inkscape:connector-curvature="0" /></g><g
           id="g3369"
           transform="translate(194.8197,506.8381)"
           style="fill:#141414;fill-opacity:1"><path
             d="M 0,0 -1.154,0 C -1.247,0 -1.3,-0.04 -1.3,-0.146 l 0,-0.312 -0.424,0 0,0.491 c 0,0.285 0.092,0.378 0.378,0.378 l 3.156,0 c 0.286,0 0.378,-0.093 0.378,-0.378 l 0,-0.491 -0.431,0 0,0.312 C 1.757,-0.04 1.711,0 1.611,0 l -1.147,0 0,-4.251 L 0,-4.251 0,0 z"
             style="fill:#141414;fill-opacity:1;fill-rule:nonzero;stroke:none"
             id="path3371"
             inkscape:connector-curvature="0" /></g><g
           id="g3373"
           transform="translate(197.1814,502.9984)"
           style="fill:#141414;fill-opacity:1"><path
             d="m 0,0 0.245,0 c 0.093,0 0.14,0.046 0.146,0.146 l 0.325,4.105 0.471,0 1.234,-2.712 C 2.533,1.3 2.653,0.988 2.653,0.988 l 0.013,0 c 0,0 0.119,0.312 0.225,0.551 l 1.234,2.712 0.471,0 0.325,-4.105 C 4.927,0.046 4.974,0 5.067,0 l 0.252,0 0,-0.411 -0.451,0 c -0.286,0 -0.385,0.119 -0.405,0.404 L 4.244,2.825 c -0.02,0.252 -0.02,0.65 -0.02,0.65 l -0.013,0 c 0,0 -0.126,-0.411 -0.239,-0.65 L 2.865,0.458 2.447,0.458 1.346,2.825 C 1.24,3.057 1.101,3.488 1.101,3.488 l -0.013,0 c 0,0 0,-0.411 -0.02,-0.663 L 0.849,-0.007 C 0.829,-0.292 0.729,-0.411 0.444,-0.411 L 0,-0.411 0,0 z"
             style="fill:#141414;fill-opacity:1;fill-rule:nonzero;stroke:none"
             id="path3375"
             inkscape:connector-curvature="0" /></g></g></g></g></svg>