<?xml version="1.0" encoding="UTF-8" ?>
<!DOCTYPE svg PUBLIC "-//W3C//DTD SVG 1.1//EN" "http://www.w3.org/Graphics/SVG/1.1/DTD/svg11.dtd">
<svg width="534pt" height="465pt" viewBox="0 0 534 465" version="1.1" xmlns="http://www.w3.org/2000/svg">
<g id="#ffffffff">
<path fill="#ffffff" opacity="1.00" d=" M 288.00 20.84 C 295.47 18.50 303.17 17.10 310.86 15.78 C 317.90 15.13 324.98 15.07 332.05 15.17 C 333.78 14.65 334.69 16.32 335.86 17.17 C 332.39 17.97 329.10 19.32 325.86 20.74 C 302.42 31.74 285.26 57.10 287.33 83.41 C 290.58 84.28 293.87 85.01 297.03 86.16 C 297.56 86.31 298.62 86.60 299.14 86.74 C 301.79 87.79 304.47 88.73 307.15 89.71 C 314.97 93.26 322.77 97.06 329.53 102.42 C 338.09 108.94 345.24 117.34 350.22 126.88 C 351.50 129.60 352.74 132.34 353.87 135.13 C 357.61 145.31 359.20 156.15 358.76 166.98 C 359.21 176.85 357.22 186.65 353.86 195.90 C 353.23 197.57 352.55 199.23 351.82 200.87 C 351.30 201.98 350.78 203.10 350.28 204.22 C 345.39 214.38 338.53 223.60 330.14 231.14 C 318.16 242.03 302.88 249.49 286.83 251.79 L 286.09 252.32 C 279.41 252.30 272.69 254.33 266.07 252.86 C 233.13 251.21 203.49 228.57 189.83 199.07 C 188.36 195.80 187.11 192.44 185.84 189.09 C 180.57 173.63 179.57 157.12 180.75 140.92 L 181.26 140.17 C 181.95 130.48 184.66 121.03 187.79 111.88 C 188.47 110.21 189.09 108.51 189.74 106.83 C 198.55 85.20 212.71 65.78 230.73 50.91 C 242.12 41.70 254.76 34.06 268.16 28.17 C 274.59 25.24 281.30 23.03 288.00 20.84 Z" />
<path fill="#ffffff" opacity="1.00" d=" M 99.43 409.48 C 102.42 407.87 105.90 408.39 109.13 408.56 C 112.90 410.30 116.34 413.07 117.98 416.99 C 121.32 424.70 121.13 433.96 117.26 441.44 C 114.96 445.97 110.13 449.23 104.94 448.73 C 99.44 449.25 94.79 445.07 92.58 440.39 C 90.03 435.33 90.21 429.48 90.52 423.98 C 91.11 418.18 94.02 412.17 99.43 409.48 Z" />
<path fill="#ffffff" opacity="1.00" d=" M 163.72 421.95 C 165.59 415.00 171.25 408.07 179.05 408.33 C 182.42 408.47 186.91 408.21 189.23 410.98 C 189.37 421.63 189.41 432.31 189.20 442.96 C 186.97 447.20 181.68 449.21 177.05 448.75 C 172.64 449.08 169.10 445.86 166.71 442.52 C 162.81 436.43 163.01 428.86 163.72 421.95 Z" />
<path fill="#ffffff" opacity="1.00" d=" M 353.90 408.57 C 356.61 408.31 359.33 408.32 362.04 408.64 C 368.23 411.17 371.95 417.52 372.51 424.01 C 372.79 427.71 372.64 431.44 372.32 435.14 C 371.02 440.68 367.72 446.25 362.16 448.29 C 358.20 448.99 353.66 449.21 350.30 446.62 C 345.21 443.20 343.51 436.84 342.75 431.11 C 341.98 422.41 345.04 412.01 353.90 408.57 Z" />
</g>
<g id="#f8d1ccff">
<path fill="#f8d1cc" opacity="1.00" d=" M 252.84 0.00 L 282.41 0.00 L 283.71 0.62 C 276.47 0.61 269.23 0.36 262.00 0.60 C 257.58 0.94 253.18 1.52 248.75 1.60 C 250.12 1.09 251.47 0.52 252.84 0.00 Z" />
</g>
<g id="#d52f1fff">
<path fill="#d52f1f" opacity="1.00" d=" M 248.75 1.60 C 253.18 1.52 257.58 0.94 262.00 0.60 C 269.23 0.36 276.47 0.61 283.71 0.62 C 289.56 1.62 295.52 1.92 301.33 3.25 C 313.84 5.52 325.83 9.81 337.60 14.48 L 336.94 16.55 C 338.24 16.45 339.55 16.36 340.86 16.27 C 355.68 23.63 369.59 32.96 381.59 44.38 C 391.26 53.53 399.92 63.74 407.03 75.01 C 432.68 114.31 439.47 165.00 425.77 209.80 C 418.76 232.63 406.85 254.04 390.63 271.61 C 362.66 302.93 321.93 322.49 279.98 324.66 C 273.31 324.82 266.63 324.81 259.96 324.63 C 234.99 323.30 210.56 315.68 188.87 303.33 C 185.72 301.40 182.60 299.44 179.54 297.38 C 135.24 267.96 106.50 215.43 108.17 161.99 C 107.12 120.09 125.12 78.91 153.98 48.93 C 158.55 44.62 163.12 40.30 167.99 36.33 C 191.09 17.67 219.31 5.50 248.75 1.60 M 288.00 20.84 C 281.30 23.03 274.59 25.24 268.16 28.17 C 254.76 34.06 242.12 41.70 230.73 50.91 C 212.71 65.78 198.55 85.20 189.74 106.83 C 189.09 108.51 188.47 110.21 187.79 111.88 C 184.66 121.03 181.95 130.48 181.26 140.17 L 180.75 140.92 C 179.57 157.12 180.57 173.63 185.84 189.09 C 187.11 192.44 188.36 195.80 189.83 199.07 C 203.49 228.57 233.13 251.21 266.07 252.86 C 272.69 254.33 279.41 252.30 286.09 252.32 L 286.83 251.79 C 302.88 249.49 318.16 242.03 330.14 231.14 C 338.53 223.60 345.39 214.38 350.28 204.22 C 350.78 203.10 351.30 201.98 351.82 200.87 C 352.55 199.23 353.23 197.57 353.86 195.90 C 357.22 186.65 359.21 176.85 358.76 166.98 C 359.20 156.15 357.61 145.31 353.87 135.13 C 352.74 132.34 351.50 129.60 350.22 126.88 C 345.24 117.34 338.09 108.94 329.53 102.42 C 322.77 97.06 314.97 93.26 307.15 89.71 C 304.47 88.73 301.79 87.79 299.14 86.74 C 298.62 86.60 297.56 86.31 297.03 86.16 C 293.87 85.01 290.58 84.28 287.33 83.41 C 285.26 57.10 302.42 31.74 325.86 20.74 C 329.10 19.32 332.39 17.97 335.86 17.17 C 334.69 16.32 333.78 14.65 332.05 15.17 C 324.98 15.07 317.90 15.13 310.86 15.78 C 303.17 17.10 295.47 18.50 288.00 20.84 Z" />
<path fill="#d52f1f" opacity="1.00" d=" M 189.36 369.44 C 195.12 369.43 200.89 369.43 206.66 369.44 C 206.71 400.48 206.69 431.53 206.67 462.57 C 201.33 462.57 196.00 462.61 190.66 462.55 C 190.46 460.96 190.33 459.33 189.27 458.06 C 185.52 462.41 179.68 464.38 174.03 463.89 C 163.75 464.56 154.68 457.25 150.28 448.44 C 146.08 440.30 145.78 430.92 146.50 421.99 C 146.83 418.09 148.27 414.42 149.73 410.84 C 153.27 403.25 159.99 397.23 168.01 394.76 C 173.14 393.17 178.62 393.18 183.91 393.88 C 185.66 394.51 187.52 394.61 189.37 394.67 C 189.28 386.26 189.29 377.85 189.36 369.44 M 163.72 421.95 C 163.01 428.86 162.81 436.43 166.71 442.52 C 169.10 445.86 172.64 449.08 177.05 448.75 C 181.68 449.21 186.97 447.20 189.20 442.96 C 189.41 432.31 189.37 421.63 189.23 410.98 C 186.91 408.21 182.42 408.47 179.05 408.33 C 171.25 408.07 165.59 415.00 163.72 421.95 Z" />
<path fill="#d52f1f" opacity="1.00" d=" M 78.62 407.57 C 88.16 391.03 113.89 388.57 127.10 401.90 C 139.00 413.39 140.44 432.88 133.24 447.27 C 128.58 456.69 118.73 463.80 108.04 463.84 C 102.60 463.99 96.89 463.99 91.91 461.49 C 82.38 457.31 76.06 447.94 73.75 438.01 C 72.47 427.71 72.60 416.48 78.62 407.57 M 99.43 409.48 C 94.02 412.17 91.11 418.18 90.52 423.98 C 90.21 429.48 90.03 435.33 92.58 440.39 C 94.79 445.07 99.44 449.25 104.94 448.73 C 110.13 449.23 114.96 445.97 117.26 441.44 C 121.13 433.96 121.32 424.70 117.98 416.99 C 116.34 413.07 112.90 410.30 109.13 408.56 C 105.90 408.39 102.42 407.87 99.43 409.48 Z" />
<path fill="#d52f1f" opacity="1.00" d=" M 337.96 399.99 C 346.20 393.02 358.00 392.17 368.11 394.77 C 381.91 399.14 390.77 413.83 389.74 428.03 C 390.49 438.34 386.81 449.08 379.11 456.13 C 373.51 461.51 365.73 464.42 357.97 463.89 C 347.64 464.59 337.13 459.33 331.70 450.49 C 321.75 435.13 323.38 411.93 337.96 399.99 M 353.90 408.57 C 345.04 412.01 341.98 422.41 342.75 431.11 C 343.51 436.84 345.21 443.20 350.30 446.62 C 353.66 449.21 358.20 448.99 362.16 448.29 C 367.72 446.25 371.02 440.68 372.32 435.14 C 372.64 431.44 372.79 427.71 372.51 424.01 C 371.95 417.52 368.23 411.17 362.04 408.64 C 359.33 408.32 356.61 408.31 353.90 408.57 Z" />
<path fill="#d52f1f" opacity="1.00" d=" M 417.56 399.96 C 426.05 393.80 437.55 391.33 447.48 395.30 C 450.58 396.39 452.88 398.79 455.28 400.93 C 455.38 401.21 455.57 401.78 455.67 402.07 C 457.21 407.00 459.88 411.72 459.75 417.04 C 459.89 429.70 459.83 442.36 459.82 455.03 C 459.56 457.23 459.87 460.91 456.95 461.30 C 453.19 461.47 449.42 460.97 445.73 460.34 C 444.45 458.91 444.83 456.77 444.64 455.02 C 444.67 444.01 444.61 433.00 444.76 421.99 C 444.92 420.40 444.33 418.95 443.33 417.75 C 441.55 413.97 439.38 410.07 435.20 408.51 C 431.33 408.16 427.16 408.09 423.91 410.56 C 421.75 412.33 417.83 413.54 418.38 416.97 C 418.36 432.15 418.36 447.33 418.38 462.50 C 412.45 462.64 406.51 462.57 400.58 462.54 C 400.55 440.15 400.66 417.77 400.53 395.39 C 406.09 395.28 411.69 394.93 417.23 395.62 C 417.33 397.06 417.44 398.51 417.56 399.96 Z" />
<path fill="#d52f1f" opacity="1.00" d=" M 19.31 395.20 C 24.97 409.19 30.74 423.17 35.81 437.39 C 36.20 437.53 36.96 437.80 37.34 437.94 C 40.12 430.58 42.97 423.25 45.74 415.88 C 48.46 409.05 50.90 402.11 53.64 395.29 C 59.44 395.24 65.25 395.22 71.06 395.31 C 70.54 398.09 69.46 400.71 68.34 403.30 C 62.29 418.24 56.15 433.14 50.17 448.10 C 48.43 452.07 46.85 456.10 45.21 460.12 C 44.98 460.72 44.50 461.91 44.27 462.51 C 39.09 462.61 33.92 462.62 28.74 462.52 C 27.63 459.61 26.42 456.74 25.20 453.87 C 24.48 452.22 23.81 450.55 23.17 448.87 C 16.76 433.89 10.56 418.82 4.25 403.81 C 2.97 401.05 1.72 398.27 1.02 395.30 C 7.12 395.18 13.21 395.36 19.31 395.20 Z" />
</g>
<g id="#d52e1fff">
<path fill="#d52e1f" opacity="1.00" d=" M 303.79 368.72 C 311.65 366.40 319.93 367.58 327.65 369.84 C 327.89 374.84 326.42 379.70 326.24 384.68 C 321.72 383.47 316.85 382.53 312.25 383.78 C 308.16 385.32 307.44 390.38 307.64 394.20 C 307.97 394.44 308.63 394.93 308.97 395.17 C 313.46 395.44 317.98 395.11 322.48 395.35 C 322.36 400.02 322.42 404.69 322.43 409.36 C 317.69 409.42 312.96 409.44 308.23 409.34 C 306.96 414.84 308.66 420.46 307.89 426.00 C 307.73 433.99 308.20 441.98 307.78 449.97 C 307.53 454.19 308.72 458.45 307.68 462.62 C 301.94 462.54 296.21 462.60 290.48 462.57 C 290.42 444.87 290.42 427.17 290.49 409.47 C 287.50 409.38 284.51 409.38 281.52 409.41 C 281.43 404.71 281.48 400.02 281.46 395.33 C 284.50 395.20 287.65 395.66 290.57 394.56 C 290.24 389.22 290.34 383.67 292.63 378.73 C 294.77 374.04 298.94 370.41 303.79 368.72 Z" />
<path fill="#d52e1f" opacity="1.00" d=" M 222.37 400.88 C 231.93 394.88 243.60 391.86 254.80 394.18 C 259.92 395.22 264.87 397.87 267.91 402.22 C 271.52 406.98 272.66 413.14 272.56 419.00 C 272.52 433.48 272.61 447.96 272.52 462.45 C 267.22 462.42 261.92 462.45 256.63 462.42 C 256.21 461.22 256.94 457.67 254.73 458.69 C 249.31 464.09 241.11 464.50 233.96 463.51 C 224.19 461.73 216.01 452.24 217.25 442.07 C 216.29 431.67 225.78 424.32 234.83 421.74 C 240.41 420.06 246.18 419.50 251.94 418.90 C 252.66 418.83 254.12 418.70 254.84 418.63 C 254.69 416.02 255.00 413.02 253.04 410.97 C 251.58 409.11 249.27 408.40 247.13 407.66 C 240.06 406.92 233.29 409.88 227.70 413.99 C 225.78 410.80 224.67 407.20 222.59 404.10 C 222.50 403.02 222.42 401.95 222.37 400.88 M 238.46 434.49 C 234.02 437.02 233.18 442.99 235.84 447.14 C 242.09 451.20 250.31 449.23 255.37 444.20 C 255.31 439.93 255.34 435.67 255.38 431.40 C 249.67 431.39 243.57 431.73 238.46 434.49 Z" />
</g>
<g id="#d62e1fff">
<path fill="#d62e1f" opacity="1.00" d=" M 492.79 394.82 C 494.15 394.50 495.52 394.15 496.88 393.78 C 505.60 392.68 515.25 394.00 522.00 400.08 C 529.17 406.62 531.89 416.64 532.45 426.03 C 532.35 428.25 532.95 430.67 531.84 432.72 L 531.29 432.65 C 526.98 431.34 522.44 432.12 518.02 431.97 C 508.48 432.13 498.92 431.62 489.39 432.24 L 489.29 433.36 C 488.73 438.89 491.75 444.56 496.79 446.99 C 500.80 449.30 505.60 448.69 510.03 448.66 C 515.55 448.72 520.46 445.87 525.14 443.28 C 526.49 448.18 529.00 452.87 529.36 457.97 C 518.72 463.80 505.88 465.30 494.10 462.80 C 493.49 462.67 492.29 462.40 491.68 462.27 C 480.60 458.27 472.99 447.50 471.63 435.97 C 471.03 428.25 470.98 420.21 473.96 412.92 C 477.07 404.44 484.17 397.56 492.79 394.82 M 489.34 420.52 C 497.79 420.58 506.25 420.58 514.70 420.53 C 514.22 414.83 510.64 409.45 505.08 407.63 C 503.31 407.62 501.55 407.60 499.80 407.59 C 494.14 409.41 489.60 414.42 489.34 420.52 Z" />
</g>
<g id="#ae3333ff">
<path fill="#ae3333" opacity="1.00" d=" M 455.67 402.07 C 459.83 406.46 460.36 413.16 461.16 418.93 C 461.41 431.61 461.16 444.30 461.29 456.99 C 461.36 458.91 461.12 460.83 460.57 462.68 C 454.86 462.50 449.15 462.61 443.45 462.58 C 443.34 447.64 443.55 432.69 443.33 417.75 C 444.33 418.95 444.92 420.40 444.76 421.99 C 444.61 433.00 444.67 444.01 444.64 455.02 C 444.83 456.77 444.45 458.91 445.73 460.34 C 449.42 460.97 453.19 461.47 456.95 461.30 C 459.87 460.91 459.56 457.23 459.82 455.03 C 459.83 442.36 459.89 429.70 459.75 417.04 C 459.88 411.72 457.21 407.00 455.67 402.07 Z" />
</g>
<g id="#fefffeff">
<path fill="#fefffe" opacity="1.00" d=" M 489.34 420.52 C 489.60 414.42 494.14 409.41 499.80 407.59 C 501.55 407.60 503.31 407.62 505.08 407.63 C 510.64 409.45 514.22 414.83 514.70 420.53 C 506.25 420.58 497.79 420.58 489.34 420.52 Z" />
<path fill="#fefffe" opacity="1.00" d=" M 238.46 434.49 C 243.57 431.73 249.67 431.39 255.38 431.40 C 255.34 435.67 255.31 439.93 255.37 444.20 C 250.31 449.23 242.09 451.20 235.84 447.14 C 233.18 442.99 234.02 437.02 238.46 434.49 Z" />
</g>
<g id="#b83228ff">
<path fill="#b83228" opacity="1.00" d=" M 489.39 432.24 C 498.92 431.62 508.48 432.13 518.02 431.97 C 522.44 432.12 526.98 431.34 531.29 432.65 L 531.45 433.18 C 517.41 433.64 503.34 433.31 489.29 433.36 L 489.39 432.24 Z" />
</g>
</svg>
