<?xml version="1.0" encoding="utf-8"?>
<!-- Generator: Adobe Illustrator 18.0.0, SVG Export Plug-In . SVG Version: 6.00 Build 0)  -->
<!DOCTYPE svg PUBLIC "-//W3C//DTD SVG 1.1//EN" "http://www.w3.org/Graphics/SVG/1.1/DTD/svg11.dtd">
<svg version="1.1" id="Layer_1" xmlns="http://www.w3.org/2000/svg" xmlns:xlink="http://www.w3.org/1999/xlink" x="0px" y="0px"
	 viewBox="0 0 368.9 183.1" enable-background="new 0 0 368.9 183.1" xml:space="preserve">
<path fill="#7CC143" d="M205.5,2.2L191.8,42h-0.1c0.1-1.1,0.2-2.1,0.2-3.2c0-18.6-9.9-36.6-34.7-36.6h-28.9v40.6h0
	c-2.8-9.8-13.5-13.6-26.8-16.1c-5.4-1-7.8-1.9-7.8-4c0-2.6,2.7-3.7,6.7-3.7c5.7,0,12.4,2.3,18,5.1l5.8-18.3
	c-7-3.6-14.4-5.8-23.3-5.8C79.8,0,69.5,11.9,69.5,25c0,14.9,12.9,20.8,31.9,24.4c2.1,0.4,5.7,1.1,5.7,4.1c0,2.5-2.5,3.8-6,3.8
	c-7.5,0-18.6-5.1-26.9-9.5l-4.1,11.1L51,2.2H25.1L0,75.8h21.9l3-9.4H49l3,9.4h23l-2-5.6c7,4.2,17.3,7.6,27.9,7.6
	c19.5,0,25.7-11.4,27.3-17.3h0v15.3h29.1c13.6,0,20.2-3.9,27.2-12.5h0.1l-4.3,12.5h21.8l3.1-9.4h24.2l3,9.4h23.9l-25-73.7H205.5
	 M31,47.5l6-19.1l6,19.1H31z M155.6,55.4h-5.3V23.3h5.2c6.7,0,13.7,2.3,13.7,15.8C169.3,51,163.2,55.4,155.6,55.4z M211.2,47.5
	l6.1-19.5l6.1,19.5H211.2z"/>
<polyline fill="#7CC143" points="0,97.3 9.5,97.3 39.7,143.4 69.9,97.3 79.4,97.3 79.4,181.7 70,181.7 70,113.4 39.8,158.6 
	39.3,158.6 9.1,113.5 9.1,181.7 0,181.7 0,97.3 "/>
<path fill="#7CC143" d="M126.3,183.1c-4.6,0-8.8-0.9-12.7-2.6c-3.9-1.7-7.2-4.1-10.1-7c-2.8-2.9-5.1-6.3-6.6-10.2
	c-1.6-3.9-2.4-8.1-2.4-12.5v-0.2c0-4.4,0.8-8.6,2.4-12.5c1.6-3.9,3.8-7.4,6.7-10.4c2.8-3,6.2-5.3,10.1-7c3.9-1.7,8.2-2.6,12.8-2.6
	c4.6,0,8.8,0.9,12.7,2.6c3.9,1.7,7.3,4.1,10.1,7c2.8,2.9,5.1,6.4,6.6,10.2c1.6,3.9,2.4,8.1,2.4,12.5v0.2c0,4.4-0.8,8.6-2.4,12.5
	c-1.6,3.9-3.9,7.4-6.7,10.4c-2.8,3-6.2,5.3-10.1,7C135.2,182.3,131,183.1,126.3,183.1 M126.5,174.8c3.3,0,6.4-0.7,9.1-1.9
	c2.8-1.3,5.1-3,7.1-5.2c2-2.2,3.5-4.7,4.6-7.6c1.1-2.9,1.7-6,1.7-9.3v-0.2c0-3.4-0.6-6.5-1.7-9.4c-1.1-2.9-2.7-5.5-4.8-7.7
	c-2.1-2.2-4.5-4-7.2-5.2c-2.8-1.3-5.8-1.9-9-1.9c-3.3,0-6.4,0.6-9.1,1.9c-2.8,1.3-5.1,3-7,5.2c-1.9,2.2-3.5,4.7-4.6,7.6
	c-1.1,2.9-1.7,6-1.7,9.3v0.2c0,3.3,0.6,6.5,1.7,9.4c1.1,2.9,2.7,5.5,4.7,7.6c2,2.2,4.4,3.9,7.2,5.2
	C120.3,174.2,123.3,174.8,126.5,174.8z"/>
<path fill="#7CC143" d="M204.5,183c-2.9,0-5.5-0.4-7.8-1.1c-2.4-0.7-4.5-1.7-6.4-2.9c-1.9-1.2-3.6-2.6-5.1-4.2
	c-1.6-1.6-2.9-3.3-4.1-5.1v11.9h-9.1v-88h9.1v38.2c1.3-1.8,2.7-3.6,4.2-5.3c1.5-1.7,3.3-3.2,5.2-4.5c1.9-1.3,4-2.3,6.3-3
	c2.3-0.7,4.9-1.1,7.8-1.1c3.7,0,7.3,0.7,10.8,2.2c3.5,1.5,6.6,3.6,9.4,6.3c2.8,2.8,5,6.1,6.6,10.1c1.7,4,2.5,8.5,2.5,13.7v0.2
	c0,5.1-0.8,9.6-2.5,13.6c-1.7,4-3.9,7.4-6.6,10.2c-2.7,2.8-5.8,4.9-9.3,6.4C211.8,182.3,208.2,183,204.5,183 M202.8,174.7
	c3,0,5.8-0.5,8.4-1.6c2.6-1.1,4.9-2.7,6.8-4.7c2-2,3.5-4.6,4.6-7.5c1.2-3,1.7-6.3,1.7-10.1v-0.2c0-3.7-0.6-7-1.7-10
	c-1.1-3-2.7-5.5-4.7-7.6c-2-2.1-4.3-3.7-6.9-4.8c-2.6-1.1-5.4-1.7-8.3-1.7c-2.8,0-5.6,0.6-8.2,1.7c-2.7,1.2-5,2.8-7.1,4.9
	c-2.1,2.1-3.8,4.6-5,7.6c-1.2,3-1.8,6.2-1.8,9.8v0.2c0,3.6,0.6,6.9,1.8,9.9c1.2,3,2.9,5.5,5,7.6c2.1,2.1,4.5,3.7,7.1,4.9
	C197.3,174.1,200,174.7,202.8,174.7z"/>
<path fill="#7CC143" d="M247.9,95.5h10.4v10.2h-10.4V95.5z M248.5,119.4h9.1v62.3h-9.1V119.4z"/>
<rect x="276.7" y="93.7" fill="#7CC143" width="9.1" height="88"/>
<path fill="#7CC143" d="M312,163.1c1.3,2.6,2.9,4.7,4.9,6.5c2,1.8,4.2,3.1,6.6,4c2.4,0.9,5,1.4,7.7,1.4c4.3,0,7.9-0.8,11-2.4
	c3-1.6,5.8-3.7,8.3-6.4l5.7,5.2c-3.1,3.5-6.6,6.4-10.5,8.5c-4,2.1-8.9,3.2-14.7,3.2c-4.2,0-8.1-0.8-11.9-2.3
	c-3.7-1.6-6.9-3.8-9.7-6.6c-2.8-2.8-5-6.3-6.6-10.3c-1.6-4-2.4-8.4-2.4-13.3c0-4.5,0.7-8.7,2.2-12.7c1.5-4,3.5-7.4,6.1-10.4
	c2.6-3,5.7-5.2,9.3-6.9c3.6-1.7,7.5-2.5,11.8-2.5c4.5,0,8.5,0.9,12.1,2.6c3.5,1.7,6.5,4.1,9,7c2.4,3,4.3,6.5,5.6,10.5
	c1.3,4,1.9,8.3,1.9,12.9c0,0.4,0,0.9,0,1.5c0,0.5-0.1,1.1-0.1,1.8h-48.6C309.9,157.6,310.7,160.6,312,163.1 M348.9,146.9
	c-0.2-2.8-0.8-5.5-1.8-8c-1-2.5-2.2-4.8-3.9-6.7c-1.6-1.9-3.6-3.4-5.9-4.6c-2.3-1.1-5-1.7-8-1.7c-2.6,0-5.1,0.5-7.4,1.6
	c-2.3,1-4.3,2.5-6,4.4c-1.7,1.9-3.2,4.1-4.3,6.6c-1.1,2.5-1.9,5.3-2.2,8.4H348.9z"/>
<path fill="#7CC143" d="M308,107.6c6.5-4.2,14.3-6.6,22.8-6.6c8.3,0,16,2.3,22.3,6.3c0.9,0.6,2.2,0.3,2.7-0.6
	c0.6-0.9,0.3-2.2-0.6-2.7c-7-4.4-15.4-6.9-24.5-6.9c-9.3,0-17.9,2.7-25,7.2c-0.9,0.6-1.2,1.8-0.6,2.8
	C305.8,107.9,307,108.2,308,107.6"/>
<path fill="#7CC143" d="M301.4,89.4c8.4-5.3,18.5-8.4,29.5-8.4c10.6,0,20.3,2.9,28.5,7.9c0.9,0.6,2.2,0.3,2.7-0.7
	c0.6-0.9,0.3-2.2-0.7-2.7c-8.8-5.4-19.3-8.5-30.6-8.5c-11.7,0-22.6,3.3-31.6,9.1c-0.9,0.6-1.2,1.8-0.6,2.8
	C299.2,89.7,300.5,90,301.4,89.4"/>
<path fill="#7CC143" d="M295,69.6c10.4-6,22.8-9.5,36-9.5c12.8,0,24.7,3.2,35,8.9c1,0.5,2.2,0.2,2.7-0.8c0.5-1,0.2-2.2-0.8-2.7
	c-10.8-6-23.4-9.4-36.9-9.4c-13.9,0-27,3.7-38,10c-1,0.6-1.3,1.8-0.7,2.7C292.8,69.8,294,70.1,295,69.6"/>
</svg>
