<?xml version="1.0" encoding="utf-8"?>
<!-- Generator: Adobe Illustrator 15.0.0, SVG Export Plug-In . SVG Version: 6.00 Build 0)  -->
<!DOCTYPE svg PUBLIC "-//W3C//DTD SVG 1.0//EN" "http://www.w3.org/TR/2001/REC-SVG-20010904/DTD/svg10.dtd">
<svg version="1.0" id="Layer_1" xmlns="http://www.w3.org/2000/svg" xmlns:xlink="http://www.w3.org/1999/xlink" x="0px" y="0px"
	 width="230px" height="96px" viewBox="0 0 230 96" enable-background="new 0 0 230 96" xml:space="preserve">
<g>
	<defs>
		<path id="SVGID_1_" d="M23.678,18.25C7.165,34.774,7.165,61.549,23.673,78.062c8.26,8.258,19.086,12.386,29.913,12.386
			c10.823,0,21.646-4.126,29.904-12.38c16.513-16.513,16.513-43.299,0-59.818C75.23,9.994,64.407,5.865,53.582,5.865
			S31.935,9.994,23.678,18.25"/>
	</defs>
	<clipPath id="SVGID_2_">
		<use xlink:href="#SVGID_1_"  overflow="visible"/>
	</clipPath>
	
		<radialGradient id="SVGID_3_" cx="-528.2388" cy="495.1074" r="1" gradientTransform="matrix(42.2909 0 0 -42.2909 22393.2598 20986.6875)" gradientUnits="userSpaceOnUse">
		<stop  offset="0" style="stop-color:#00AEEF"/>
		<stop  offset="0.2253" style="stop-color:#00AEEF"/>
		<stop  offset="0.4559" style="stop-color:#00ABEC"/>
		<stop  offset="0.5982" style="stop-color:#00A6E5"/>
		<stop  offset="0.7165" style="stop-color:#009FDA"/>
		<stop  offset="0.8216" style="stop-color:#0094CC"/>
		<stop  offset="0.9171" style="stop-color:#0086B9"/>
		<stop  offset="1" style="stop-color:#0076A3"/>
	</radialGradient>
	<rect x="7.166" y="5.866" clip-path="url(#SVGID_2_)" fill="url(#SVGID_3_)" width="92.836" height="84.583"/>
</g>
<g>
	<defs>
		<path id="SVGID_4_" d="M-35.269-1.271c-13.555,13.555-13.221,29.035-8.198,40.893c0.91,2.157,1.29,3.111,1.417,3.111
			c0.576,0-4.059-19.693,12.227-35.98C-16.673-6.396-2.951-8.205,4.224-8.205c1.36,0,2.485,0.066,3.325,0.132
			C8.392-8.007,8.95-7.943,9.176-7.943c0.482,0-0.549-0.297-3.557-1.52c-4.647-1.892-9.817-3.123-15.197-3.123
			C-18.023-12.586-26.989-9.55-35.269-1.271"/>
	</defs>
	<clipPath id="SVGID_5_">
		<use xlink:href="#SVGID_4_"  overflow="visible"/>
	</clipPath>
	<g clip-path="url(#SVGID_5_)">
		<defs>
			<rect id="SVGID_6_" x="-48.942" y="-12.785" width="58.781" height="55.656"/>
		</defs>
		<clipPath id="SVGID_7_">
			<use xlink:href="#SVGID_6_"  overflow="visible"/>
		</clipPath>
	</g>
</g>
<g>
	<defs>
		<path id="SVGID_8_" d="M25.187,41.384c-5.081,5.083-1.33,17.078,8.381,26.786c9.712,9.715,21.706,13.466,26.792,8.382
			c5.082-5.085,1.332-17.077-8.38-26.793c-6.772-6.769-14.655-10.642-20.53-10.642C28.898,39.117,26.726,39.846,25.187,41.384"/>
	</defs>
	<clipPath id="SVGID_9_">
		<use xlink:href="#SVGID_8_"  overflow="visible"/>
	</clipPath>
	
		<radialGradient id="SVGID_10_" cx="-528.9829" cy="495.5664" r="1.0021" gradientTransform="matrix(45.1411 0 0 -45.1427 23935.0527 22415.6328)" gradientUnits="userSpaceOnUse">
		<stop  offset="0" style="stop-color:#FFFFFF"/>
		<stop  offset="0.4725" style="stop-color:#FFFFFF"/>
		<stop  offset="0.5148" style="stop-color:#F5F5F6"/>
		<stop  offset="0.724" style="stop-color:#D6D7D9"/>
		<stop  offset="0.8931" style="stop-color:#C3C5C7"/>
		<stop  offset="1" style="stop-color:#BCBEC0"/>
	</radialGradient>
	<rect x="20.107" y="39.117" clip-path="url(#SVGID_9_)" fill="url(#SVGID_10_)" width="45.334" height="42.519"/>
</g>
<g>
	<defs>
		<path id="SVGID_11_" d="M53.497,29.535c-1.528,0-2.831,0.438-3.754,1.36c-3.053,3.05-0.797,10.248,5.027,16.074
			c5.828,5.828,13.023,8.081,16.073,5.029c3.054-3.05,0.8-10.25-5.026-16.076c-4.062-4.063-8.793-6.387-12.316-6.387H53.497z"/>
	</defs>
	<clipPath id="SVGID_12_">
		<use xlink:href="#SVGID_11_"  overflow="visible"/>
	</clipPath>
	
		<radialGradient id="SVGID_13_" cx="-528.9873" cy="495.5703" r="1" gradientTransform="matrix(45.1407 0 0 -45.1407 23935.0488 22414.8125)" gradientUnits="userSpaceOnUse">
		<stop  offset="0" style="stop-color:#FFFFFF"/>
		<stop  offset="0.4725" style="stop-color:#FFFFFF"/>
		<stop  offset="1" style="stop-color:#BCBEC0"/>
	</radialGradient>
	<rect x="46.69" y="29.535" clip-path="url(#SVGID_12_)" fill="url(#SVGID_13_)" width="27.206" height="25.515"/>
</g>
<g>
	<defs>
		<path id="SVGID_14_" d="M65.593,23.487c-1.829,1.83-0.479,6.148,3.017,9.641c3.496,3.497,7.812,4.851,9.644,3.022
			c1.833-1.833,0.483-6.151-3.017-9.648c-2.438-2.439-5.274-3.833-7.389-3.833C66.93,22.669,66.146,22.932,65.593,23.487"/>
	</defs>
	<clipPath id="SVGID_15_">
		<use xlink:href="#SVGID_14_"  overflow="visible"/>
	</clipPath>
	
		<radialGradient id="SVGID_16_" cx="-528.9951" cy="495.5605" r="1.0004" gradientTransform="matrix(45.1358 0 0 -45.1459 23932.8848 22417.0195)" gradientUnits="userSpaceOnUse">
		<stop  offset="0" style="stop-color:#FFFFFF"/>
		<stop  offset="0.5" style="stop-color:#FFFFFF"/>
		<stop  offset="0.5998" style="stop-color:#DEDFE0"/>
		<stop  offset="0.7019" style="stop-color:#C6C8CA"/>
		<stop  offset="0.8036" style="stop-color:#B5B7B9"/>
		<stop  offset="0.9036" style="stop-color:#AAADAF"/>
		<stop  offset="1" style="stop-color:#A7A9AC"/>
	</radialGradient>
	<rect x="63.765" y="22.669" clip-path="url(#SVGID_15_)" fill="url(#SVGID_16_)" width="16.321" height="15.31"/>
</g>
<g>
	<path fill="#6D6E71" d="M113.516,34.148c0,1.922-0.17,2.483-0.976,3.488h7.556c-0.85-1.005-0.977-1.566-0.977-3.488v-13.31
		c3.311,0.03,7.271,0.636,8.943,1.945v-4.843h-23.539v4.843c1.672-1.31,5.173-1.826,8.992-1.855V34.148z M131.036,34.148
		c0,1.922-0.157,2.513-0.909,3.488h18.258v-4.801c-2.504,1.803-7.272,1.814-9.209,1.785h-2.662V29.12h1.951
		c1.321,0,3.711,0.147,5.098,0.565v-4.093c-1.366,0.444-3.771,0.57-5.088,0.57h-1.961v-5.234h2.662c2.371,0,6.492,0.503,8.039,1.812
		v-4.8h-17.127c0.791,1.006,0.948,1.567,0.948,3.49V34.148z M165.067,33.027c0,1.718-2.63,2.42-4.757,2.42
		c-3.824,0-6.484-0.58-9.825-2.604v4.318c2.491,0.83,5.901,1.239,9.581,1.239c5.133,0,9.934-1.338,9.934-6.428
		c0-8.988-14.869-4.953-14.869-9.358c0-1.772,2.385-2.399,4.467-2.399c3.506,0,7.292,1.061,9.37,3.008v-4.621
		c-2.688-0.856-6.269-1.357-8.997-1.357c-4.946,0-9.771,1.484-9.771,6.456C150.199,32.308,165.067,27.759,165.067,33.027
		 M184.929,38.351c2.627,0,4.984-0.33,7.728-0.994v-5.109c-1.938,2.068-4.25,2.876-6.724,2.876c-4.789,0-8.073-3.017-8.073-7.36
		c0-4.283,3.399-7.39,8.151-7.39c2.588,0,4.666,0.931,6.336,2.579v-5.113c-1.738-0.361-3.901-0.543-6.104-0.543
		c-8.924,0-14.836,4.344-14.836,10.95C171.406,34.31,176.815,38.351,184.929,38.351 M206.531,20.277
		c4.028,0,6.701,3.367,6.701,7.523c0,4.154-2.673,7.523-6.701,7.523c-4.095,0-6.701-3.369-6.701-7.523
		C199.83,23.644,202.437,20.277,206.531,20.277 M206.074,38.351c7.728,0,13.065-4.344,13.065-10.679
		c0-6.213-4.846-10.376-12.082-10.376c-7.692,0-13.137,4.465-13.137,10.768C193.921,34.249,198.804,38.351,206.074,38.351
		 M196.582,43.265h-14.187c-2.324,0-4.197,1.327-5.105,2.28c0,0-2.217,2.228-3.715,2.993c-0.066,0.037-0.066,0.119,0.025,0.119
		h13.56c2.675,0,3.931-0.915,5.519-2.352c0,0,2.303-2.197,3.887-2.896C196.726,43.349,196.703,43.265,196.582,43.265 M173.31,43.265
		h-14.186c-2.325,0-4.196,1.327-5.106,2.28c0,0-2.217,2.228-3.713,2.993c-0.067,0.037-0.067,0.119,0.023,0.119h13.56
		c2.677,0,3.931-0.915,5.52-2.352c0,0,2.301-2.197,3.887-2.896C173.454,43.349,173.433,43.265,173.31,43.265 M219.854,43.265
		h-14.188c-2.324,0-4.195,1.327-5.105,2.28c0,0-2.217,2.228-3.715,2.993c-0.065,0.037-0.065,0.119,0.025,0.119h13.559
		c2.677,0,3.933-0.915,5.52-2.352c0,0,2.303-2.197,3.887-2.896C219.998,43.349,219.976,43.265,219.854,43.265 M126.766,43.265
		h-14.187c-2.323,0-4.196,1.327-5.104,2.28c0,0-2.217,2.228-3.715,2.993c-0.066,0.037-0.066,0.119,0.025,0.119h13.559
		c2.676,0,3.931-0.915,5.52-2.352c0,0,2.301-2.197,3.886-2.896C126.91,43.349,126.889,43.265,126.766,43.265 M150.038,43.265
		h-14.187c-2.324,0-4.195,1.327-5.105,2.28c0,0-2.217,2.228-3.715,2.993c-0.066,0.037-0.066,0.119,0.025,0.119h13.559
		c2.676,0,3.932-0.915,5.52-2.352c0,0,2.301-2.197,3.887-2.896C150.182,43.349,150.16,43.265,150.038,43.265"/>
	<path fill="#6D6E71" d="M201.816,69.288h-9.159c0.139-3.054,1.354-5.586,4.719-5.586C200.636,63.702,201.644,65.957,201.816,69.288
		 M204.071,70.536c0-5.065-1.873-8.464-6.451-8.464c-4.824,0-7.183,3.227-7.183,8.326c0,5.238,2.741,8.672,7.979,8.672
		c2.566,0,4.094-0.452,4.961-0.833l-0.556-1.63c-0.971,0.347-2.221,0.625-4.024,0.625c-3.711,0-5.758-1.7-6.141-6.211h10.893
		C203.898,71.021,204.071,70.882,204.071,70.536 M187.757,78.654V54.925c0-0.207-0.104-0.312-0.312-0.312s-0.729,0.069-1.076,0.104
		l-1.074,0.103c0.276,0.313,0.381,0.901,0.381,1.562v21.959c0,0.207,0.139,0.312,0.347,0.312H187.757z M182.216,78.654V62.8
		c0-0.209-0.104-0.313-0.311-0.313h-2.117c0.243,0.348,0.348,0.903,0.348,1.562v14.293c0,0.207,0.139,0.312,0.346,0.312H182.216z
		 M182.771,56.937c0-0.762-0.45-1.457-1.595-1.457c-1.18,0-1.631,0.729-1.631,1.457c0,0.658,0.451,1.388,1.631,1.388
		C182.321,58.325,182.771,57.595,182.771,56.937 M175.22,70.431c0,4.893-2.428,6.904-5.549,6.904c-1.25,0-2.742-0.209-3.99-0.799
		V65.818c1.389-1.284,2.845-1.907,4.578-1.907C173.173,63.911,175.22,66.095,175.22,70.431 M177.509,70.084
		c0-5.065-2.705-8.013-6.832-8.013c-2.395,0-4.303,1.074-4.996,1.666v-8.812c0-0.207-0.105-0.312-0.312-0.312
		s-0.729,0.069-1.074,0.104l-1.077,0.103c0.278,0.313,0.383,0.901,0.383,1.562v19.6c0,0.521-0.035,1.318-0.347,1.839
		c1.49,0.762,3.676,1.249,6.313,1.249C174.145,79.07,177.509,76.329,177.509,70.084 M158.739,70.571
		c0,3.712-1.491,6.799-5.099,6.799c-3.573,0-5.1-3.087-5.1-6.799c0-3.782,1.596-6.8,5.1-6.8
		C157.213,63.771,158.739,66.789,158.739,70.571 M161.029,70.571c0-5.69-2.984-8.499-7.389-8.499c-4.371,0-7.391,2.809-7.391,8.499
		c0,5.203,3.053,8.499,7.391,8.499C157.977,79.07,161.029,75.808,161.029,70.571 M143.528,78.654V67.9
		c0-3.678-1.631-5.828-5.551-5.828c-2.185,0-4.267,1.145-5.654,2.773c-0.763-1.803-2.394-2.773-5.03-2.773
		c-2.254,0-4.093,1.145-5.308,2.566c-0.035-0.625-0.069-0.937-0.138-1.248c-0.036-0.209-0.07-0.451-0.104-0.59
		c-0.07-0.209-0.175-0.313-0.451-0.313h-1.701c0.104,0.243,0.174,0.625,0.279,1.181c0.103,0.764,0.207,1.77,0.207,2.844v11.83
		c0,0.207,0.104,0.312,0.312,0.312h1.771V66.86c1.006-1.527,2.705-2.949,4.821-2.949c2.739,0,3.78,1.664,3.78,4.647v9.783
		c0,0.207,0.104,0.312,0.312,0.312h1.77V66.86c1.006-1.527,2.705-2.949,4.822-2.949c2.74,0,3.78,1.664,3.78,4.647v9.783
		c0,0.207,0.104,0.312,0.312,0.312H143.528z"/>
</g>
</svg>
